<svg xmlns="http://www.w3.org/2000/svg" viewBox="0 0 16.442 21.913"><path data-name="Union 6" d="M3.019 21.413a2.52 2.52 0 01-2.517-2.517v-7.191a2.516 2.516 0 012.514-2.516h2.35v1.56h-2.35a.958.958 0 00-.954.956v7.191a.957.957 0 00.956.957h10.411a.957.957 0 00.954-.957v-7.191a.956.956 0 00-.956-.956H11.08v-1.56h2.347a2.517 2.517 0 012.516 2.516v7.189a2.516 2.516 0 01-2.514 2.517zm5.2-5.722a.778.778 0 01-.779-.777V3.161L5.299 5.303a.778.778 0 01-1.1 0 .777.777 0 010-1.1L7.67.733a.777.777 0 01.67-.221h.026a.78.78 0 01.436.247l3.438 3.438a.783.783 0 010 1.1.775.775 0 01-.552.229.772.772 0 01-.551-.229L8.999 3.159v11.754a.779.779 0 01-.779.779z" fill="#6E6E6E" stroke="rgba(0,0,0,0)" stroke-miterlimit="10"/></svg>